<svg xmlns="http://www.w3.org/2000/svg" fill="none" viewBox="0 0 48 48"><path stroke-linejoin="bevel" stroke-width="3" stroke="#4a90e2" d="M4 33a2 2 0 0 1 2-2h6v-7l12-8 12 8v7h6a2 2 0 0 1 2 2v9a2 2 0 0 1-2 2H4V33Z" data-follow-stroke="#4a90e2"/><path stroke-linecap="square" stroke-width="3" stroke="#4a90e2" d="M24 6v10" data-follow-stroke="#4a90e2"/><path stroke-linejoin="bevel" stroke-linecap="square" stroke-width="3" stroke="#4a90e2" d="M36 12V6s-1.5 3-6 0-6 0-6 0v6s1.5-3 6 0 6 0 6 0ZM28 44V31h-8v13M18 44h12" data-follow-stroke="#4a90e2"/></svg>